<svg xmlns="http://www.w3.org/2000/svg" xmlns:xlink="http://www.w3.org/1999/xlink" version="1.1" x="0px" y="0px" viewBox="0 0 100 125" style="enable-background:new 0 0 100 100;" xml:space="preserve"><style type="text/css">
	.st0{fill:none;stroke:#000000;stroke-width:2;stroke-linecap:round;stroke-linejoin:round;stroke-miterlimit:10;}
</style><path d="M49.4375,89.9970703C49.5742188,89.9990234,49.7099609,90,49.8461914,90  c7.4326172-0.0004883,14.4238281-2.8637695,19.7236328-8.0893555c5.3979492-5.3227539,8.3706055-12.4282227,8.3706055-20.0083008  c0-12.6953125-8.4243164-23.71875-20.5854492-27.0766602v-0.6425781c0-2.4150391-1.9643555-4.3793945-4.3793945-4.3793945h-2.210144  c-0.0424194-0.6948853,0.0302734-2.0264282,1.0285034-3.1489258c1.4750977-1.6591797,4.5380859-2.3051758,8.8554688-1.8681641  c4.2995605,0.4334106,7.6459351-0.1296997,9.9908447-1.6622925c0.6785278,0.1480713,1.3239746,0.4213257,1.8968506,0.8375854  c0.175293,0.1274414,0.3818359,0.190918,0.5878906,0.190918s0.4125977-0.0634766,0.5878906-0.190918  c0.871582-0.6333008,1.9023438-0.9682617,2.9799805-0.9682617c0.4331055,0,0.8173828-0.2788086,0.9511719-0.690918  c0.3330078-1.0249023,0.9697266-1.9013672,1.8413086-2.534668c0.3500977-0.2548828,0.4970703-0.7060547,0.3632812-1.1181641  c-0.3330078-1.0249023-0.3330078-2.1083984,0-3.1333008c0.1337891-0.4121094-0.0131836-0.8632812-0.3632812-1.1181641  c-0.8720703-0.6333008-1.5083008-1.5097656-1.8413086-2.534668c-0.1337891-0.4121094-0.5180664-0.690918-0.9511719-0.690918  c-1.0776367,0-2.1083984-0.3349609-2.9799805-0.9682617c-0.3505859-0.2548828-0.8251953-0.2548828-1.1757812,0  c-0.871582,0.6333008-1.9023438,0.9682617-2.9799805,0.9682617c-0.4331055,0-0.8173828,0.2788086-0.9511719,0.690918  c-0.3330078,1.0249023-0.9692383,1.9013672-1.8413086,2.534668c-0.3500977,0.2548828-0.4970703,0.7060547-0.3632812,1.1181641  c0.3330078,1.0249023,0.3330078,2.1083984,0,3.1333008c-0.1337891,0.4121094,0.0131836,0.8632812,0.3632812,1.1181641  c0.7849121,0.5703125,1.3660889,1.3449707,1.7197266,2.2405396c-1.9037476,0.8278198-4.4851685,1.1051636-7.6337891,0.7877808  c-5.0546875-0.5083008-8.6044922,0.340332-10.5512695,2.5292969c-1.3967285,1.5704956-1.5751343,3.4036255-1.5341797,4.4780273  h-2.0556641c-2.4150391,0-4.3793945,1.9643555-4.3793945,4.3793945v0.6425781  c-12.8339844,3.5449219-21.4243164,15.625-20.519043,29.0258789C22.7871094,78.3085938,34.9223633,89.7929688,49.4375,89.9970703z   M68.487793,18.5898438c0.21875-0.9956055,0.21875-2.0175781,0-3.0131836  c0.762207-0.6772461,1.362793-1.5039062,1.7709961-2.4379883c1.0146484-0.0996094,1.9868164-0.4155273,2.8662109-0.9311523  c0.8793945,0.515625,1.8515625,0.831543,2.8662109,0.9311523C76.3994141,14.0727539,77,14.8994141,77.762207,15.5766602  c-0.21875,0.9956055-0.21875,2.0175781,0,3.0131836C77,19.2670898,76.3994141,20.09375,75.9912109,21.027832  c-1.0146484,0.0996094-1.9868164,0.4155273-2.8662109,0.9311523c-0.2372437-0.1390991-0.4822388-0.2608643-0.7319946-0.3705444  c1.7677612-2.1083984,1.7345581-4.4240723,1.7315063-4.5317993c-0.0146484-0.5522461-0.4916992-0.9868164-1.0263672-0.9726562  c-0.5522461,0.0146484-0.987793,0.4746094-0.9726562,1.0263672c0.0004883,0.0205078,0.0058594,2.0776367-1.7407227,3.699707  c-0.0514526,0.0477905-0.1152954,0.0862427-0.1688843,0.1324463C69.8088379,20.0442505,69.2260742,19.2458496,68.487793,18.5898438z   M43.5698242,36.5683594c0.4462891-0.1098633,0.7602539-0.5107422,0.7602539-0.9707031v-1.4145508  c0-1.3120117,1.0673828-2.3793945,2.3793945-2.3793945h6.2661133c1.3120117,0,2.3793945,1.0673828,2.3793945,2.3793945v1.4145508  c0,0.4599609,0.3139648,0.8608398,0.7602539,0.9707031c11.6728516,2.8803711,19.8251953,13.2983398,19.8251953,25.3339844  c0,7.0405273-2.7612305,13.6401367-7.7749023,18.5839844c-5.0126953,4.9428711-11.6748047,7.6333008-18.699707,7.5107422  c-13.4819336-0.1894531-24.7529297-10.8544922-25.659668-24.2802734  C22.9487305,51.0234375,31.2607422,39.605957,43.5698242,36.5683594z"/><path d="M30.7739258,57.9589844c0.0893555,0.0249023,0.1796875,0.0371094,0.2680664,0.0371094  c0.4379883,0,0.8398438-0.2900391,0.9628906-0.7329102c1.3696289-4.9287109,4.7143555-9.2167969,9.1767578-11.7651367  c0.4794922-0.2734375,0.6459961-0.8842773,0.3720703-1.3642578c-0.2734375-0.4785156-0.8828125-0.6455078-1.3642578-0.3720703  c-4.9160156,2.8071289-8.6015625,7.5332031-10.1113281,12.9663086  C29.9301758,57.2597656,30.2416992,57.8110352,30.7739258,57.9589844z"/><text x="0" y="115" fill="#000000" font-size="5px" font-weight="bold" font-family="'Helvetica Neue', Helvetica, Arial-Unicode, Arial, Sans-serif">Created by Made by Made</text><text x="0" y="120" fill="#000000" font-size="5px" font-weight="bold" font-family="'Helvetica Neue', Helvetica, Arial-Unicode, Arial, Sans-serif">from the Noun Project</text></svg>