<svg xmlns="http://www.w3.org/2000/svg" xmlns:xlink="http://www.w3.org/1999/xlink" version="1.1" x="0px" y="0px" viewBox="0 0 100 125" style="enable-background:new 0 0 100 100;" xml:space="preserve"><style type="text/css">
	.st0{fill:none;stroke:#000000;stroke-width:2;stroke-linecap:round;stroke-linejoin:round;stroke-miterlimit:10;}
</style><path d="M49.9208984,37.7207031c-6.7705078,0-12.2792969,5.5083008-12.2792969,12.2792969  s5.5087891,12.2792969,12.2792969,12.2792969S62.2001953,56.7709961,62.2001953,50S56.6914062,37.7207031,49.9208984,37.7207031z   M49.9208984,60.2792969c-5.6679688,0-10.2792969-4.6113281-10.2792969-10.2792969s4.6113281-10.2792969,10.2792969-10.2792969  S60.2001953,44.3320312,60.2001953,50S55.5888672,60.2792969,49.9208984,60.2792969z"/><path d="M89.0927734,49h-8.6328125c-0.5197754-16.0587769-13.4802856-29.0192261-29.5390625-29.5390625v-8.4604492  c0-0.5522461-0.4472656-1-1-1s-1,0.4477539-1,1v8.4604492C32.8621216,19.9807739,19.9016724,32.9412231,19.3818359,49h-8.4765625  c-0.5527344,0-1,0.4477539-1,1s0.4472656,1,1,1h8.4765625c0.5215454,16.1107788,13.5645752,29.102356,29.6953125,29.5430298  v8.4564819c0,0.5522461,0.4472656,1,1,1s1-0.4477539,1-1v-8.4644165C67.0637817,79.9366455,79.9417725,67.0067749,80.4599609,51  h8.6328125c0.5527344,0,1-0.4477539,1-1S89.6455078,49,89.0927734,49z M51.0771484,78.5350952V68.2949219  c0-0.5522461-0.4472656-1-1-1s-1,0.4477539-1,1v10.2481079C34.0489502,78.1038208,21.9017944,66.0077515,21.3818359,51H32.609375  c0.5527344,0,1-0.4477539,1-1s-0.4472656-1-1-1H21.3818359c0.5181274-14.9558105,12.5827637-27.0209351,27.5390625-27.5390625  v10.2441406c0,0.5522461,0.4472656,1,1,1s1-0.4477539,1-1V21.4609375C65.8771973,21.9790649,77.9418945,34.0441895,78.4599609,49  H67.3876953c-0.5527344,0-1,0.4477539-1,1s0.4472656,1,1,1h11.0722656  C77.9436035,65.9038696,65.9613037,77.9389038,51.0771484,78.5350952z"/><text x="0" y="115" fill="#000000" font-size="5px" font-weight="bold" font-family="'Helvetica Neue', Helvetica, Arial-Unicode, Arial, Sans-serif">Created by Made by Made</text><text x="0" y="120" fill="#000000" font-size="5px" font-weight="bold" font-family="'Helvetica Neue', Helvetica, Arial-Unicode, Arial, Sans-serif">from the Noun Project</text></svg>