<svg xmlns:dc="http://purl.org/dc/elements/1.1/" xmlns:cc="http://creativecommons.org/ns#" xmlns:rdf="http://www.w3.org/1999/02/22-rdf-syntax-ns#" xmlns:svg="http://www.w3.org/2000/svg" xmlns="http://www.w3.org/2000/svg" xmlns:sodipodi="http://sodipodi.sourceforge.net/DTD/sodipodi-0.dtd" xmlns:inkscape="http://www.inkscape.org/namespaces/inkscape" viewBox="0 0 26.458333 33.0729175" version="1.1" x="0px" y="0px"><g transform="translate(0,-270.54165)"><rect style="opacity:1;fill:none;fill-opacity:1;stroke:none;stroke-width:4.02166653;stroke-linecap:round;stroke-linejoin:round;stroke-miterlimit:4;stroke-dasharray:none;stroke-dashoffset:0;stroke-opacity:1;paint-order:markers fill stroke" width="26.458332" height="26.458332" x="0" y="270.54166" ry="0.23105533"/><g transform="matrix(0.95088707,0,0,0.95088707,-5.0540815,-30.177818)"><g style="" transform="translate(-68.100276,34.985581)" fill="#000000"><path style="" d="m 78.744283,291.70471 c -0.476258,2.17555 0.550483,3.6497 1.353052,5.22846 l 1.336347,-0.30068 -0.03341,-0.61806 c -1.200583,-1.16335 -2.123149,-2.56766 -2.655989,-4.30972 z" fill="#000000" stroke="none"/><path style="" d="m 81.425332,295.42978 c -1.656534,-2.17586 -3.493758,-4.39207 -1.094134,-7.71741 -0.449289,2.68532 0.426529,4.63014 1.46998,6.48128 -0.257944,0.33146 -0.378435,0.74266 -0.375846,1.23613 z" fill="#000000" stroke="none"/><path style="" d="m 82.46968,285.93237 c -0.684115,0.30184 -1.203319,0.75027 -1.689082,1.22842 -0.331583,4.0042 0.643789,5.30219 1.237368,6.64597 0.475522,-0.57797 0.98869,-0.78347 1.377331,-0.99219 -0.944209,-1.74116 -1.637561,-3.79738 -0.925617,-6.8822 z" fill="#000000" stroke="none"/><path d="m 90.592309,282.79797 c -0.747211,3.8428 -6.431225,1.29018 -7.81755,2.99908 -0.6505,3.76797 0.381064,5.51268 0.974643,6.85646 1.904744,-0.4126 2.342453,0.7313 3.149094,0.57877 1.981687,-0.37473 4.20775,-1.65743 6.016461,-4.06234 0.990379,-1.31683 2.335537,-4.10559 -0.463057,-6.25949 0.02672,0.37266 -0.146927,1.07342 -0.62003,1.40718 0.135082,-0.71151 -0.230972,-1.46106 -0.230972,-1.46106 -0.117361,0.95849 -0.521664,1.27426 -0.786673,1.32403 0.08036,-0.51456 0.05835,-0.99351 -0.221916,-1.38263 z" style="" fill="#000000" stroke="none"/><path style="" d="m 88.210193,293.5037 c 0.97777,0.0295 1.98898,-0.34073 2.870257,-0.98037 0.6609,-0.47969 1.225297,-0.16906 1.618209,0.69689 0.528044,1.16377 0.421088,2.36235 0.543343,3.54353 l 1.015809,0.21261 c 0.410636,-1.44407 1.879326,-2.83831 1.768898,-4.43598 -0.11021,-1.59452 -0.166729,-3.06495 -1.774802,-5.1847 -0.815645,2.06123 -2.414355,4.94688 -6.041714,6.14802 z" fill="#000000" fill-opacity="1" stroke="none"/></g><path style="" d="m 14.808149,331.91877 c -1.649035,0.0243 -3.201045,0.43996 -3.201045,0.58733 l -0.04527,1.08101 c 0.98983,0.2701 0.688207,1.17746 0.864322,1.83098 0.757572,2.81123 4.703831,2.87886 5.823389,0.11052 0.241626,-0.59748 0.185302,-1.51278 0.978274,-1.52212 0.792973,0.009 0.736149,0.92464 0.977776,1.52212 1.119559,2.76834 5.065816,2.70071 5.823389,-0.11052 0.176115,-0.65352 -0.125508,-1.56088 0.864322,-1.83098 l -0.04527,-1.08101 c 0,-0.2358 -3.973215,-1.15801 -5.959731,-0.0662 -0.48198,0.26491 -1.106477,0.0662 -1.660478,0.0662 -0.554002,0 -1.178996,0.19879 -1.660978,-0.0662 -0.744948,-0.40947 -1.769263,-0.53583 -2.758686,-0.52121 z m -0.09156,0.42613 c 1.198842,-0.0106 1.935175,0.2218 2.406383,0.38463 -1.574816,-0.32611 -3.170304,-0.38445 -4.781914,0.20124 l -0.341346,0.51302 0.01689,-0.74996 c 1.094667,-0.24885 1.980656,-0.3426 2.69996,-0.34893 z" fill="#000000" stroke="none"/><path d="m 17.306398,337.78624 c -0.341517,0.10555 -0.358852,0.83958 -0.05995,0.9555 0.81625,0.31656 0.558416,1.31766 1.942002,1.37873 1.383583,-0.0611 1.125233,-1.06217 1.941483,-1.37873 0.298905,-0.11592 0.282089,-0.84995 -0.05943,-0.9555 0.333174,0.3132 0.138406,0.9615 -0.253732,0.81339 -0.314434,-0.11876 -0.577213,-0.13166 -0.784964,0.30127 -0.25737,0.40397 -0.544438,0.42634 -0.843359,0.42634 -0.298921,0 -0.586507,-0.0224 -0.843878,-0.42634 -0.207751,-0.43293 -0.47053,-0.42003 -0.784963,-0.30127 -0.392139,0.14811 -0.586391,-0.50019 -0.253214,-0.81339 z" style="opacity:1;fill:#000000;fill-opacity:1;stroke:none;stroke-width:0.26458332px;stroke-linecap:butt;stroke-linejoin:miter;stroke-opacity:1"/><path d="m 15.874444,340.12254 c -0.05514,-0.002 -0.103706,0.01 -0.147797,0.031 -0.12727,0.0452 -0.212312,0.16568 -0.212389,0.30076 2.2e-5,0.17637 0.142992,0.31934 0.31936,0.31936 0.13548,-2.7e-4 0.256024,-0.0861 0.300758,-0.21394 0.232976,-0.13895 0.778155,0.53454 1.477428,0.68988 0.787233,0.17487 1.388319,0.12971 1.631942,0.12971 0.243623,-10e-6 0.844708,0.0452 1.631942,-0.12971 0.699272,-0.15534 1.244451,-0.82883 1.477428,-0.68988 0.04473,0.12788 0.165277,0.21363 0.300757,0.21394 0.176368,-2e-5 0.319339,-0.14299 0.31936,-0.31936 -7.7e-5,-0.13508 -0.08512,-0.25551 -0.212389,-0.30076 -0.04409,-0.021 -0.09265,-0.033 -0.147794,-0.031 -0.484108,0.0163 -1.343149,0.80939 -1.676902,0.50746 -0.634926,-0.5744 -0.857489,0.23151 -1.692402,0.23151 -0.834914,0 -1.057476,-0.80591 -1.692402,-0.23151 -0.333754,0.30193 -1.192792,-0.49113 -1.6769,-0.50746 z" style="opacity:1;fill:#000000;fill-opacity:1;stroke:none;stroke-width:5.30482101;stroke-linecap:round;stroke-linejoin:round;stroke-miterlimit:4;stroke-dasharray:none;stroke-dashoffset:0;stroke-opacity:1;paint-order:markers fill stroke"/><path d="m 21.035784,341.98554 c -3e-6,0.30863 -0.761717,0.55883 -1.701337,0.55883 -0.939621,0 -1.701335,-0.2502 -1.701338,-0.55883 3e-6,-0.30863 -0.08991,0.17297 1.701338,0.17297 1.791248,0 1.701334,-0.4816 1.701337,-0.17297 z" style="opacity:1;fill:#000000;fill-opacity:1;stroke:none;stroke-width:4.54012537;stroke-linecap:round;stroke-linejoin:round;stroke-miterlimit:4;stroke-dasharray:none;stroke-dashoffset:0;stroke-opacity:1;paint-order:markers fill stroke"/></g></g><text x="0" y="41.458334" fill="#000000" font-size="5px" font-weight="bold" font-family="'Helvetica Neue', Helvetica, Arial-Unicode, Arial, Sans-serif">Created by Masnung</text><text x="0" y="46.458334" fill="#000000" font-size="5px" font-weight="bold" font-family="'Helvetica Neue', Helvetica, Arial-Unicode, Arial, Sans-serif">from the Noun Project</text></svg>