<svg xmlns="http://www.w3.org/2000/svg" xmlns:xlink="http://www.w3.org/1999/xlink" version="1.1" x="0px" y="0px" viewBox="0 0 100 125" style="enable-background:new 0 0 100 100;" xml:space="preserve"><style type="text/css">
	.st0{fill:none;stroke:#000000;stroke-width:2;stroke-linecap:round;stroke-linejoin:round;stroke-miterlimit:10;}
</style><path d="M18.48,20.344c-0.167-0.527-0.729-0.816-1.255-0.653c-0.526,0.167-0.818,0.729-0.652,1.255  c2.816,8.922,11.202,20.403,24.923,34.125c0.195,0.195,0.451,0.293,0.707,0.293s0.512-0.098,0.707-0.293  c0.391-0.391,0.391-1.023,0-1.414C26.105,36.85,20.35,26.265,18.48,20.344z"/><path d="M54.559,66.274l0.37-0.37l22.048,22.048c1.229,1.229,2.862,1.906,4.6,1.906c1.738,0,3.372-0.678,4.6-1.906  s1.905-2.862,1.905-4.6c0-1.738-0.676-3.372-1.905-4.601L64.129,56.705l0.37-0.37c0.401-0.401,0.622-0.935,0.622-1.502  S64.9,53.732,64.5,53.332l-1.062-1.063c0,0,0,0-0.001,0c-0.829-0.829-2.176-0.828-3.002,0l-1.905,1.906L14.646,10.293  c-0.201-0.201-0.478-0.311-0.761-0.291c-0.284,0.015-0.547,0.15-0.726,0.372c-0.408,0.508-9.542,12.875,29.042,51.459  c0.195,0.195,0.451,0.293,0.707,0.293s0.512-0.098,0.707-0.293l5.662-5.662l3.627,3.627l-2.411,2.411  c-0.401,0.4-0.623,0.934-0.623,1.501c0,0.568,0.221,1.102,0.622,1.502l1.063,1.062c0.414,0.414,0.957,0.62,1.501,0.62  C53.601,66.895,54.145,66.688,54.559,66.274z M68.966,64.37l-6.372,6.371l-2.418-2.418l6.371-6.372L68.966,64.37z M72.798,68.202  l-6.371,6.372l-2.419-2.419l6.372-6.371L72.798,68.202z M76.63,72.034l-6.371,6.372l-2.418-2.418l6.371-6.372L76.63,72.034z   M80.463,75.867l-6.372,6.372l-2.419-2.419l6.371-6.372L80.463,75.867z M75.506,83.653l6.372-6.372l2.418,2.418l-6.372,6.372  L75.506,83.653z M84.763,86.538c-0.851,0.852-1.982,1.32-3.186,1.32c-0.74,0-1.444-0.197-2.081-0.532l6.056-6.056  c0.334,0.637,0.531,1.341,0.531,2.081C86.082,84.556,85.614,85.688,84.763,86.538z M65.133,60.537l-6.371,6.372l-2.418-2.418  l6.372-6.371L65.133,60.537z M49.985,54.05c-0.391-0.391-1.023-0.391-1.414,0l-5.661,5.661  C12.903,29.497,13.241,16.376,14.261,12.735l42.853,42.853l-2.795,2.795L49.985,54.05z M52.97,64.86l-1.062-1.062v-0.175l9.94-9.94  c0.024-0.023,0.056-0.036,0.087-0.036s0.063,0.013,0.088,0.036l1.062,1.063c0.041,0.042,0.04,0.134,0,0.175l-9.939,9.939  C53.097,64.907,53.018,64.907,52.97,64.86z"/><text x="0" y="115" fill="#000000" font-size="5px" font-weight="bold" font-family="'Helvetica Neue', Helvetica, Arial-Unicode, Arial, Sans-serif">Created by Made by Made</text><text x="0" y="120" fill="#000000" font-size="5px" font-weight="bold" font-family="'Helvetica Neue', Helvetica, Arial-Unicode, Arial, Sans-serif">from the Noun Project</text></svg>