<svg xmlns="http://www.w3.org/2000/svg" xmlns:xlink="http://www.w3.org/1999/xlink" version="1.1" x="0px" y="0px" viewBox="0 0 100 125" style="enable-background:new 0 0 100 100;" xml:space="preserve"><style type="text/css">
	.st0{fill:none;stroke:#000000;stroke-width:2;stroke-linecap:round;stroke-linejoin:round;stroke-miterlimit:10;}
</style><path d="M73.0976562,59.0556641c-1.1020508-1.1152344-2.3017578-2.1542969-3.5654297-3.0888672l-5.5355225-4.0910645  l5.0672607-6.9499512c0.3251953-0.4462891,0.2275391-1.0712891-0.21875-1.3964844  c-0.4472656-0.3261719-1.0717773-0.2275391-1.3974609,0.21875l-5.0593872,6.939209l-0.1661987-0.1229248  c1.3359985-2.6612549,0.3591309-5.5456543,0.3120117-5.6795654c-0.0664062-0.1894531-0.1879883-0.3544922-0.3491211-0.4736328  l-0.7319946-0.5410156l14.9776001-11.0683594c0.2797852-0.2070312,0.4321289-0.5439453,0.4018555-0.890625  c-0.1449585-1.6815186-0.6768188-2.9227295-1.3310547-3.8417969l14.0927734-10.4150391  c0.2797852-0.2070312,0.4321289-0.5439453,0.4018555-0.890625c-0.4775391-5.5380859-4.8339844-6.6875-5.019043-6.734375  c-0.2905273-0.0712891-0.5966797-0.0107422-0.8364258,0.1660156L50.1645508,35.3056641  c-0.0500488,0.0371094-0.0789795,0.0889893-0.1199951,0.1328125L15.8886719,10.1953125  c-0.2402344-0.1767578-0.5478516-0.2373047-0.8364258-0.1660156c-0.1850586,0.046875-4.5415039,1.1962891-5.0185547,6.734375  c-0.0302734,0.3466797,0.1220703,0.6835938,0.4018555,0.890625l14.0926514,10.4150391  c-0.6542358,0.9189453-1.1860962,2.1601562-1.3309326,3.8417969c-0.0302734,0.3466797,0.1220703,0.6835938,0.4018555,0.890625  l14.9775391,11.0683594L37.84375,44.4121094c-0.1606445,0.1191406-0.2822266,0.2832031-0.3486328,0.4726562  c-0.0471191,0.1339111-1.0237427,3.0185547,0.3126831,5.6799316l-0.1664429,0.1230469l-5.0598145-6.9396973  c-0.3251953-0.4462891-0.9516602-0.5449219-1.3974609-0.21875c-0.4462891,0.3251953-0.5439453,0.9501953-0.21875,1.3964844  l5.067749,6.9506836l-5.5360107,4.0913086c-1.2646484,0.9345703-2.4643555,1.9736328-3.5654297,3.0878906l-16.612793,16.7939453  c-0.3867188,0.390625-0.3852539,1.0205078,0.003418,1.4101562l12.4296875,12.4472656  C22.940918,89.8955078,23.1958008,90,23.4594727,90c0.0498047,0,0.1000977-0.0039062,0.1499023-0.0117188  c0.3144531-0.046875,0.5874023-0.2412109,0.7353516-0.5234375l14.1000977-26.8330078  c0.9736938-1.8520508,2.3718872-3.486084,4.0406494-4.7368164l3.102417,2.4204102  c0.1806641,0.1416016,0.3979492,0.2119141,0.6152344,0.2119141c0.2084961,0,0.4174805-0.0654297,0.5942383-0.1962891  l3.2171021-2.3768311l3.2174683,2.3778076c0.1767578,0.1298828,0.3857422,0.1953125,0.5942383,0.1953125  c0.2172852,0,0.4345703-0.0703125,0.6152344-0.2119141l3.1034546-2.4208984  c1.6685791,1.251709,3.0665283,2.885376,4.0401001,4.7373047l14.1000977,26.8330078  c0.1479492,0.2822266,0.4208984,0.4765625,0.7353516,0.5234375C76.4702148,89.9960938,76.5205078,90,76.5703125,90  c0.2631836,0,0.5185547-0.1044922,0.7075195-0.2929688l12.4296875-12.4472656  c0.3886719-0.3896484,0.3901367-1.0195312,0.003418-1.4101562L73.0976562,59.0556641z M59.7822266,42.6171875  c-0.0040894,0.0030518-0.0057983,0.0078125-0.0098267,0.0108643l-3.9298706-2.9044189l16.2263184-11.9931641  c0.753418,0.3417969,2.3017578,1.3339844,2.7041016,3.8085938L59.7822266,42.6171875z M84.9003906,12.1210938  c0.8144531,0.3583984,2.6000977,1.4541016,3.0380859,4.2695312L74.09021,26.6246338  c-0.9807129-0.7304688-1.8632812-0.9678955-1.9417725-0.987915c-0.2885742-0.0712891-0.5957031-0.0107422-0.8359375,0.1660156  l-17.1529541,12.677002l-2.461853-1.8193359L84.9003906,12.1210938z M15.128418,12.1210938l45.5952148,33.6972656  c0.1517334,0.6044922,0.4118652,2.1087646-0.1520386,3.526123l-31.8543091-23.541748  c-0.2397461-0.1767578-0.546875-0.2373047-0.8359375-0.1660156c-0.0784912,0.0200195-0.9610596,0.2573242-1.9418335,0.987793  L12.0913086,16.390625C12.5288086,13.5722656,14.3120117,12.4794922,15.128418,12.1210938z M39.3056641,45.8183594  l0.953186-0.7050781l2.4627075,1.8199463l-3.2631836,2.4117432C38.8934326,47.9260254,39.1542969,46.4206543,39.3056641,45.8183594z   M36.6743164,61.7021484L23.206543,87.3310547l-10.7670898-10.78125l15.9140625-16.0878906  c1.0292969-1.0410156,2.1508789-2.0126953,3.3325195-2.8857422l11.8103638-8.7280273l0.6207886,4.3764648  c0.0375977,0.265625,0.1801758,0.5039062,0.3959961,0.6640625l0.0094604,0.0070801l-3.1535034,2.3308105  C39.4257812,57.6621094,37.8022461,59.5556641,36.6743164,61.7021484z M46.2197266,58.2714844l-2.0689697-1.6137695  l2.0548706-1.5183105l2.1259155,1.5710449L46.2197266,58.2714844z M53.8100586,58.2714844l-7.7714844-5.7431641  l-0.4979858-3.5117188l10.3391724,7.640625L53.8100586,58.2714844z M76.8232422,87.3310547L63.3554688,61.7021484  c-1.1279297-2.1464844-2.7514648-4.0400391-4.6948242-5.4765625L25.2568359,31.5390625  c0.4023438-2.4785156,1.9545898-3.46875,2.703125-3.8085938l32.3510132,23.9085693  c0.0002441,0.0001221,0.0003052,0.0003662,0.0005493,0.0006104s0.0006104,0.0002441,0.0008545,0.0004883l8.0308838,5.9350586  c1.1811523,0.8740234,2.3022461,1.8447266,3.3325195,2.8867188L87.590332,76.5498047L76.8232422,87.3310547z"/><text x="0" y="115" fill="#000000" font-size="5px" font-weight="bold" font-family="'Helvetica Neue', Helvetica, Arial-Unicode, Arial, Sans-serif">Created by Made by Made</text><text x="0" y="120" fill="#000000" font-size="5px" font-weight="bold" font-family="'Helvetica Neue', Helvetica, Arial-Unicode, Arial, Sans-serif">from the Noun Project</text></svg>